<?xml version="1.0" encoding="UTF-8" standalone="no"?>
<svg
   version="1.1"
   width="16"
   height="16"
   id="svg4372"
   xml:space="preserve"
   xmlns:xlink="http://www.w3.org/1999/xlink"
   xmlns="http://www.w3.org/2000/svg"
   xmlns:svg="http://www.w3.org/2000/svg"
   xmlns:rdf="http://www.w3.org/1999/02/22-rdf-syntax-ns#"
   xmlns:cc="http://creativecommons.org/ns#"
   xmlns:dc="http://purl.org/dc/elements/1.1/"><defs
     id="defs4374"><linearGradient
       x1="23.99999"
       y1="7.5572624"
       x2="23.99999"
       y2="40.752987"
       id="linearGradient3304"
       xlink:href="#linearGradient3924-4-8"
       gradientUnits="userSpaceOnUse"
       gradientTransform="matrix(0.2972973,0,0,0.2972973,0.86486906,0.8648672)" /><linearGradient
       id="linearGradient3924-4-8"><stop
         id="stop3926-0-4"
         style="stop-color:#ffffff;stop-opacity:1"
         offset="0" /><stop
         id="stop3928-6-8"
         style="stop-color:#ffffff;stop-opacity:0.23529412"
         offset="0.06316455" /><stop
         id="stop3930-2-1"
         style="stop-color:#ffffff;stop-opacity:0.15686275"
         offset="0.95056331" /><stop
         id="stop3932-9-0"
         style="stop-color:#ffffff;stop-opacity:0.39215687"
         offset="1" /></linearGradient><linearGradient
       id="linearGradient3600-9-51"><stop
         offset="0"
         style="stop-color:#f4f4f4;stop-opacity:1"
         id="stop3602-0-0" /><stop
         offset="1"
         style="stop-color:#dbdbdb;stop-opacity:1"
         id="stop3604-9-04" /></linearGradient><linearGradient
       id="linearGradient3104-6"><stop
         offset="0"
         style="stop-color:#000000;stop-opacity:0.31782946"
         id="stop3106-3" /><stop
         offset="1"
         style="stop-color:#000000;stop-opacity:0.24031007"
         id="stop3108-9" /></linearGradient><linearGradient
       xlink:href="#linearGradient3104-6"
       id="linearGradient2140"
       gradientUnits="userSpaceOnUse"
       gradientTransform="matrix(0.80749686,0,0,0.89471714,-36.453698,-22.660761)"
       x1="56.408016"
       y1="42.392338"
       x2="56.408016"
       y2="26.595999" /><linearGradient
       xlink:href="#linearGradient3600-9-51"
       id="linearGradient2184"
       gradientUnits="userSpaceOnUse"
       gradientTransform="matrix(0.3067662,0,0,0.29504822,-14.701832,0.57521328)"
       x1="74.838791"
       y1="4.535933"
       x2="74.838791"
       y2="49.779099" /></defs><metadata
     id="metadata4377"><rdf:RDF><cc:Work
         rdf:about=""><dc:format>image/svg+xml</dc:format><dc:type
           rdf:resource="http://purl.org/dc/dcmitype/StillImage" /></cc:Work></rdf:RDF></metadata><rect
     style="color:#000000;font-variation-settings:normal;display:inline;overflow:visible;visibility:visible;vector-effect:none;fill:url(#linearGradient2184);fill-opacity:1;fill-rule:nonzero;stroke:none;stroke-width:1;stroke-linecap:butt;stroke-linejoin:miter;stroke-miterlimit:4;stroke-dasharray:none;stroke-dashoffset:0;stroke-opacity:1;-inkscape-stroke:none;marker:none;enable-background:accumulate;stop-color:#000000"
     id="rect5505-21-1-7-2-9-5"
     y="2.000001"
     x="2"
     ry="1.5"
     rx="1.5"
     height="12"
     width="12" /><rect
     width="11"
     height="11"
     x="2.5"
     y="2.4999969"
     id="rect6741-0-3-5"
     style="opacity:1;fill:none;stroke:url(#linearGradient3304);stroke-width:1;stroke-linecap:round;stroke-linejoin:round;stroke-miterlimit:4;stroke-dasharray:none;stroke-dashoffset:0;stroke-opacity:1"
     rx="1"
     ry="1" /><rect
     width="13.000003"
     height="13.000003"
     rx="2"
     ry="2"
     x="1.5"
     y="1.499997"
     id="rect5505-21-2-8"
     style="color:#000000;display:inline;overflow:visible;visibility:visible;opacity:1;fill:none;stroke:url(#linearGradient2140);stroke-width:0.999922;stroke-linecap:butt;stroke-linejoin:round;stroke-miterlimit:4;stroke-dasharray:none;stroke-dashoffset:0;stroke-opacity:1;marker:none;enable-background:accumulate;font-variation-settings:normal;vector-effect:none;fill-opacity:1;-inkscape-stroke:none;stop-color:#000000;stop-opacity:1" /><path
     id="path8689"
     d="M 8,4.5 C 6.623507,4.5 5.5,5.628788 5.5,7 v 4 c 0,1.371212 1.123507,2.5 2.5,2.5 1.376493,0 2.5,-1.128788 2.5,-2.5 V 7 C 10.5,5.628788 9.376493,4.5 8,4.5 Z M 8,6 C 8.552,6 9,6.4 9,7 9,7.5 8.552,8 8,8 7.448,8 7,7.5 7,7 7,6.4 7.448,6 8,6 Z m 0,3 c 0.552,0 1,0.4 1,1 v 1 C 9,11.5 8.552,12 8,12 7.448,12 7,11.5 7,11 V 10 C 7,9.4 7.448,9 8,9 Z"
     style="opacity:0.2;fill:#000000;fill-opacity:1;stroke:#000000;stroke-opacity:1" /><path
     style="opacity:0.5;fill:#000000;fill-opacity:1"
     id="path14"
     d="m 6,2 v 7 c 0,1.1 0.895,2 2,2 1.105,0 2,-0.9 2,-2 V 2 Z" /><path
     style="fill:#999999"
     id="path16"
     d="M 8,2 H 7 V 3 H 8 Z M 8,3 V 4 H 9 V 3 Z M 8,4 H 7 V 5 H 8 Z M 8,5 V 6 H 9 V 5 Z M 8,6 H 7 V 7 H 8 Z M 8,7 V 8 H 9 V 7 Z M 8,8 H 7 v 1 h 1 z m 0,1 v 1 C 8.552,10 9,9.5 9,9 Z" /><path
     style="fill:#ecf0f1"
     id="path18"
     d="M 7,3 V 4 H 8 V 3 Z M 7,5 V 6 H 8 V 5 Z M 7,7 V 8 H 8 V 7 Z m 0,2 c 0,0.5 0.448,1 1,1 V 9 Z" /><path
     style="fill:#ecf0f1;stroke:#000000;stroke-opacity:0.462963"
     d="M 8,3.5 C 6.623507,3.5 5.5,4.628788 5.5,6 v 4 c 0,1.371212 1.123507,2.5 2.5,2.5 1.376493,0 2.5,-1.128788 2.5,-2.5 V 6 C 10.5,4.628788 9.376493,3.5 8,3.5 Z M 8,5 C 8.552,5 9,5.4 9,6 9,6.5 8.552,7 8,7 7.448,7 7,6.5 7,6 7,5.4 7.448,5 8,5 Z m 0,3 c 0.552,0 1,0.4 1,1 v 1 C 9,10.5 8.552,11 8,11 7.448,11 7,10.5 7,10 V 9 C 7,8.4 7.448,8 8,8 Z"
     id="path22" /></svg>
